<svg width="13" height="12" viewBox="0 0 13 12" fill="none" xmlns="http://www.w3.org/2000/svg">
<path fill-rule="evenodd" clip-rule="evenodd" d="M12.0521 11.0625C12.0521 11.5803 11.6324 12 11.1146 12H0.989624C0.471843 12 0.052124 11.5803 0.052124 11.0625V0.9375C0.052124 0.419719 0.471843 0 0.989624 0H11.1146C11.6324 0 12.0521 0.419719 12.0521 0.9375V11.0625ZM6.05212 1.6875C3.35972 1.6875 1.17712 3.40842 1.17712 5.53125C1.17712 6.9037 2.08959 8.10797 3.46219 8.78798C3.38751 9.04552 2.98233 10.4447 2.9662 10.5547C2.9662 10.5547 2.9565 10.6372 3.00998 10.6688C3.06347 10.7003 3.12637 10.6758 3.12637 10.6758C3.27975 10.6544 4.90495 9.51277 5.18625 9.31453C5.46726 9.35433 5.75662 9.375 6.05212 9.375C8.74453 9.375 10.9271 7.65412 10.9271 5.53125C10.9271 3.40842 8.74453 1.6875 6.05212 1.6875ZM3.07556 6.60445C3.07556 6.75258 3.2017 6.87305 3.35681 6.87305C3.51192 6.87305 3.63806 6.75258 3.63806 6.60445V4.93359H4.07691C4.22906 4.93359 4.35291 4.81003 4.35291 4.6582C4.35291 4.50637 4.22911 4.38281 4.07691 4.38281H2.63672C2.48456 4.38281 2.36072 4.50637 2.36072 4.6582C2.36072 4.81003 2.48451 4.93359 2.63672 4.93359H3.07556V6.60445ZM5.58895 6.74517C5.616 6.82177 5.70572 6.86939 5.823 6.86939C5.88468 6.86944 5.94566 6.85622 6.00178 6.83063C6.07931 6.79495 6.15384 6.69656 6.06825 6.43069L5.39578 4.66073C5.3483 4.52578 5.20434 4.38698 5.02064 4.38286C4.83745 4.38703 4.6935 4.52578 4.64611 4.66045L3.97336 6.4312C3.88795 6.69647 3.96248 6.79481 4.04001 6.83058C4.09613 6.85622 4.1571 6.86945 4.2188 6.86939C4.33608 6.86939 4.42575 6.82181 4.4527 6.74536L4.59206 6.38053L5.44969 6.38058L5.58895 6.74517ZM5.02087 5.08434L5.3018 5.88239H4.73995L5.02087 5.08434ZM6.25134 6.57422C6.25134 6.71634 6.37223 6.83203 6.52087 6.83203H7.42322C7.57186 6.83203 7.69275 6.71634 7.69275 6.57422C7.69275 6.43209 7.57186 6.31641 7.42322 6.31641H6.82556V4.66406C6.82556 4.50895 6.69675 4.38281 6.53845 4.38281C6.38016 4.38281 6.25134 4.50895 6.25134 4.66406V6.57422ZM7.80216 6.58814C7.80216 6.74325 7.9283 6.86939 8.08341 6.86939C8.158 6.86929 8.22951 6.83961 8.28225 6.78686C8.33499 6.73411 8.36466 6.66259 8.36475 6.588V5.97436L8.46234 5.87677L9.12192 6.7507C9.14804 6.78559 9.18196 6.81387 9.22098 6.83328C9.26 6.8527 9.30301 6.8627 9.34659 6.8625C9.40768 6.86265 9.46713 6.8427 9.51577 6.80573C9.54532 6.78357 9.57018 6.75577 9.58892 6.72393C9.60765 6.69209 9.61988 6.65685 9.62489 6.62025C9.63014 6.58367 9.62807 6.54642 9.6188 6.51065C9.60953 6.47488 9.59324 6.44131 9.57089 6.41189L8.87859 5.49473L9.51951 4.85391C9.56358 4.8098 9.58566 4.749 9.58158 4.68267C9.57755 4.61691 9.54816 4.55358 9.49889 4.50436C9.44606 4.45158 9.37556 4.4213 9.30534 4.4213C9.24516 4.4213 9.1897 4.44352 9.14934 4.48387L8.36466 5.26856V4.66406C8.36466 4.50895 8.23851 4.38281 8.08341 4.38281C7.9283 4.38281 7.80216 4.50895 7.80216 4.66406V6.58814Z" fill="#767676"/>
</svg>
