<svg width="12" height="12" viewBox="0 0 12 12" fill="none" xmlns="http://www.w3.org/2000/svg">
<path fill-rule="evenodd" clip-rule="evenodd" d="M5.99999 0C4.37048 0 4.16615 0.00690694 3.52621 0.0361066C2.88756 0.0652349 2.45142 0.166672 2.06976 0.31498C1.6752 0.468314 1.3406 0.673474 1.00704 1.00703C0.673485 1.34061 0.468326 1.67522 0.314992 2.06977C0.16666 2.45142 0.0652471 2.88758 0.0360951 3.52621C0.00689548 4.16617 -1.14441e-05 4.3705 -1.14441e-05 6.00001C-1.14441e-05 7.6295 0.00689548 7.83383 0.0360951 8.47379C0.0652471 9.11242 0.16666 9.54858 0.314992 9.93023C0.468326 10.3248 0.673485 10.6594 1.00704 10.993C1.3406 11.3265 1.6752 11.5317 2.06976 11.685C2.45142 11.8333 2.88756 11.9348 3.52621 11.9639C4.16615 11.9931 4.37048 12 5.99999 12C7.6295 12 7.83383 11.9931 8.47376 11.9639C9.11242 11.9348 9.54855 11.8333 9.93022 11.685C10.3248 11.5317 10.6594 11.3265 10.9929 10.993C11.3265 10.6594 11.5317 10.3248 11.685 9.93023C11.8333 9.54858 11.9347 9.11242 11.9639 8.47379C11.9931 7.83383 12 7.6295 12 6.00001C12 4.3705 11.9931 4.16617 11.9639 3.52621C11.9347 2.88758 11.8333 2.45142 11.685 2.06977C11.5317 1.67522 11.3265 1.34061 10.9929 1.00703C10.6594 0.673474 10.3248 0.468314 9.93022 0.31498C9.54855 0.166672 9.11242 0.0652349 8.47376 0.0361066C7.83383 0.00690694 7.6295 0 5.99999 0ZM5.99999 1.08108C7.60206 1.08108 7.79181 1.0872 8.42449 1.11607C9.00948 1.14274 9.3272 1.24049 9.53862 1.32266C9.81866 1.4315 10.0185 1.56152 10.2285 1.77149C10.4385 1.98143 10.5685 2.18131 10.6773 2.46137C10.7595 2.6728 10.8572 2.99049 10.8839 3.57548C10.9128 4.20816 10.9189 4.39793 10.9189 6.00001C10.9189 7.60206 10.9128 7.79184 10.8839 8.42451C10.8572 9.00951 10.7595 9.3272 10.6773 9.53863C10.5685 9.81869 10.4385 10.0186 10.2285 10.2285C10.0185 10.4385 9.81866 10.5685 9.53862 10.6773C9.3272 10.7595 9.00948 10.8573 8.42449 10.8839C7.79191 10.9128 7.60216 10.9189 5.99999 10.9189C4.39782 10.9189 4.20807 10.9128 3.57549 10.8839C2.9905 10.8573 2.67278 10.7595 2.46136 10.6773C2.18132 10.5685 1.98145 10.4385 1.77147 10.2285C1.56153 10.0186 1.43149 9.81869 1.32264 9.53863C1.2405 9.3272 1.14275 9.00951 1.11605 8.42451C1.08719 7.79184 1.08109 7.60206 1.08109 6.00001C1.08109 4.39793 1.08719 4.20816 1.11605 3.57548C1.14275 2.99049 1.2405 2.6728 1.32264 2.46137C1.43149 2.18131 1.56153 1.98143 1.77147 1.77149C1.98145 1.56152 2.18132 1.4315 2.46136 1.32266C2.67278 1.24049 2.9905 1.14274 3.57547 1.11607C4.20817 1.0872 4.39792 1.08108 5.99999 1.08108ZM6 7.94737C4.92451 7.94737 4.05263 7.07551 4.05263 6.00001C4.05263 4.92449 4.92451 4.05263 6 4.05263C7.07549 4.05263 7.94735 4.92449 7.94735 6.00001C7.94735 7.07551 7.07549 7.94737 6 7.94737ZM6 3.00001C4.34315 3.00001 3 4.34314 3 6.00001C3 7.65686 4.34315 9 6 9C7.65685 9 9 7.65686 9 6.00001C9 4.34314 7.65685 3.00001 6 3.00001ZM9.14912 3.5191C9.54443 3.5191 9.86491 3.19864 9.86491 2.80331C9.86491 2.40798 9.54443 2.08752 9.14912 2.08752C8.75379 2.08752 8.43331 2.40798 8.43331 2.80331C8.43331 3.19864 8.75379 3.5191 9.14912 3.5191Z" fill="#767676"/>
</svg>
